HIERARCHY
ROOT Hips
{
	OFFSET 0.00000 0.00000 0.00000
	CHANNELS 6 Xposition Yposition Zposition Zrotation Yrotation Xrotation 
	JOINT LHipJoint
	{
		OFFSET 0 0 0
		CHANNELS 3 Zrotation Yrotation Xrotation
		JOINT LeftUpLeg
		{
			OFFSET 1.55766 -1.60504 1.11378
			CHANNELS 3 Zrotation Yrotation Xrotation
			JOINT LeftLeg
			{
				OFFSET 2.29047 -6.29302 0.00000
				CHANNELS 3 Zrotation Yrotation Xrotation
				JOINT LeftFoot
				{
					OFFSET 2.52265 -6.93093 0.00000
					CHANNELS 3 Zrotation Yrotation Xrotation
					JOINT LeftToeBase
					{
						OFFSET 0.17633 -0.48446 2.02656
						CHANNELS 3 Zrotation Yrotation Xrotation
						End Site
						{
							OFFSET 0.00000 -0.00000 1.04989
						}
					}
				}
			}
		}
	}
	JOINT RHipJoint
	{
		OFFSET 0 0 0
		CHANNELS 3 Zrotation Yrotation Xrotation
		JOINT RightUpLeg
		{
			OFFSET -1.48599 -1.60504 1.11378
			CHANNELS 3 Zrotation Yrotation Xrotation
			JOINT RightLeg
			{
				OFFSET -2.27280 -6.24448 0.00000
				CHANNELS 3 Zrotation Yrotation Xrotation
				JOINT RightFoot
				{
					OFFSET -2.50834 -6.89161 0.00000
					CHANNELS 3 Zrotation Yrotation Xrotation
					JOINT RightToeBase
					{
						OFFSET -0.26967 -0.74090 2.08741
						CHANNELS 3 Zrotation Yrotation Xrotation
						End Site
						{
							OFFSET -0.00000 -0.00000 1.10614
						}
					}
				}
			}
		}
	}
	JOINT LowerBack
	{
		OFFSET 0 0 0
		CHANNELS 3 Zrotation Yrotation Xrotation
		JOINT Spine
		{
			OFFSET 0.06481 2.02437 -0.08472
			CHANNELS 3 Zrotation Yrotation Xrotation
			JOINT Spine1
			{
				OFFSET 0.00015 1.96711 0.18069
				CHANNELS 3 Zrotation Yrotation Xrotation
				JOINT Neck
				{
					OFFSET 0 0 0
					CHANNELS 3 Zrotation Yrotation Xrotation
					JOINT Neck1
					{
						OFFSET -0.29961 1.68293 -0.13041
						CHANNELS 3 Zrotation Yrotation Xrotation
						JOINT Head
						{
							OFFSET 0.59697 1.61501 -0.14669
							CHANNELS 3 Zrotation Yrotation Xrotation
							End Site
							{
								OFFSET 0.22973 1.74906 -0.10148
							}
						}
					}
				}
				JOINT LeftShoulder
				{
					OFFSET 0 0 0
					CHANNELS 3 Zrotation Yrotation Xrotation
					JOINT LeftArm
					{
						OFFSET 3.37968 1.02893 0.31147
						CHANNELS 3 Zrotation Yrotation Xrotation
						JOINT LeftForeArm
						{
							OFFSET 5.19807 -0.00000 -0.00000
							CHANNELS 3 Zrotation Yrotation Xrotation
							JOINT LeftHand
							{
								OFFSET 3.09370 -0.00000 -0.00000
								CHANNELS 3 Zrotation Yrotation Xrotation
								JOINT LeftFingerBase
								{
									OFFSET 0 0 0
									CHANNELS 3 Zrotation Yrotation Xrotation
									JOINT LeftHandIndex1
									{
										OFFSET 0.67263 -0.00000 -0.00000
										CHANNELS 3 Zrotation Yrotation Xrotation
										End Site
										{
											OFFSET 0.54229 -0.00000 -0.00000
										}
									}
								}
								JOINT LThumb
								{
									OFFSET 0 0 0
									CHANNELS 3 Zrotation Yrotation Xrotation
									End Site
									{
										OFFSET 0.55057 -0.00000 0.55057
									}
								}
							}
						}
					}
				}
				JOINT RightShoulder
				{
					OFFSET 0 0 0
					CHANNELS 3 Zrotation Yrotation Xrotation
					JOINT RightArm
					{
						OFFSET -3.38254 0.96355 -0.16120
						CHANNELS 3 Zrotation Yrotation Xrotation
						JOINT RightForeArm
						{
							OFFSET -5.45222 -0.00000 -0.00000
							CHANNELS 3 Zrotation Yrotation Xrotation
							JOINT RightHand
							{
								OFFSET -3.01284 -0.00000 -0.00000
								CHANNELS 3 Zrotation Yrotation Xrotation
								JOINT RightFingerBase
								{
									OFFSET 0 0 0
									CHANNELS 3 Zrotation Yrotation Xrotation
									JOINT RightHandIndex1
									{
										OFFSET -0.62230 -0.00000 -0.00000
										CHANNELS 3 Zrotation Yrotation Xrotation
										End Site
										{
											OFFSET -0.50171 -0.00000 -0.00000
										}
									}
								}
								JOINT RThumb
								{
									OFFSET 0 0 0
									CHANNELS 3 Zrotation Yrotation Xrotation
									End Site
									{
										OFFSET -0.50937 -0.00000 0.50937
									}
								}
							}
						}
					}
				}
			}
		}
	}
}
MOTION
Frames: 8
Frame Time: .0083333
-5.9765 16.1115 35.4936 0 0 0 0 0 0 -21 0 0 0 0 0 0 0 0 0 0 0 0 0 0 21 0 0 0 0 0 0 0 0 0 0 0 0 0 0 0 0 0 0 0 0 0 0 -16 0 0 21 0 0 11 0 0 0 -8 0 0 0 0 0 0 0 0 0 0 0 0 0 0 0 0 0 0 0 0 8 0 0 0 0 0 0 0 0 0 0 0 0 0 0 0 0 0
-5.9765 16.1115 35.4936 -139.0130 -83.9894 152.6430 0.0000 0.0000 0.0000 -17.9556 0.1954 -22.3954 1.6657 8.1320 23.1156 0.4531 -14.6080 -14.8028 0.5460 -4.7340 -13.1516 0.0000 0.0000 0.0000 19.2527 1.0902 -15.1201 -0.8783 -5.9747 16.7110 -0.6004 11.3804 -14.9022 -1.1519 6.8147 -19.1674 1.9019 2.2853 -11.0339 0.6088 2.5585 -6.4583 -0.1705 1.1161 -0.4923 -31.8416 -6.7368 16.5619 42.7911 -14.8167 -9.7522 23.7432 -9.9229 1.0199 0.0000 0.0000 0.0000 -86.2072 12.8377 48.0805 19.4844 -30.0162 -5.2710 -0.0000 0.0000 -39.6577 14.2200 -12.7879 -3.2104 -7.1250 0.0000 -0.0000 -9.0319 16.9036 6.0923 0.0000 0.0000 0.0000 88.1203 -4.3200 43.7696 -13.0509 21.3618 -2.4718 0.0000 0.0000 22.8357 -7.9913 3.6167 -0.5074 7.1250 -0.0000 -0.0000 14.0514 -26.2701 6.5681
-5.9944 16.1057 35.4381 -138.7250 -83.7310 151.9970 0.0000 0.0000 0.0000 -17.6738 1.5416 -22.3860 1.6788 8.1623 23.2080 0.3819 -15.7757 -14.7417 0.5013 -4.5391 -12.5984 0.0000 0.0000 0.0000 19.5700 2.6379 -13.9168 -0.8784 -5.9749 16.7116 -0.6921 9.6708 -15.3229 -1.2007 6.9524 -19.5743 1.1333 2.2252 -11.0267 0.9049 2.5513 -6.3459 0.5663 1.1411 -0.4257 -31.8327 -6.7335 16.6250 42.7461 -14.8561 -9.6267 23.7007 -9.9427 1.0481 -0.0000 -0.0000 0.0000 -86.2346 12.9096 48.0500 19.4836 -30.0151 -5.2706 -0.0000 0.0000 -39.6292 13.8578 -12.7743 -3.1222 -7.1250 0.0000 -0.0000 -9.2818 16.9426 6.2573 -0.0000 -0.0000 0.0000 88.1158 -4.3580 43.2962 -12.9545 21.2205 -2.4368 0.0000 0.0000 23.1096 -7.8783 3.5136 -0.4859 7.1250 -0.0000 -0.0000 14.1472 -26.3711 6.5809
-6.0005 16.1030 35.4434 -139.9970 -83.8864 153.2110 0.0000 0.0000 0.0000 -17.9437 1.7226 -22.3417 1.6725 8.1477 23.1635 0.3594 -16.0344 -14.6795 0.4813 -4.4487 -12.3425 0.0000 0.0000 0.0000 19.3510 2.4060 -13.9538 -0.8886 -6.0086 16.8095 -0.7022 9.7833 -15.4443 -1.2224 7.0126 -19.7528 0.8843 2.1640 -11.0814 0.8982 2.4916 -6.3517 0.6942 1.1174 -0.4123 -31.8507 -6.7224 16.6198 42.6822 -14.8740 -9.4676 23.6468 -9.9425 1.0891 -0.0000 -0.0000 0.0000 -86.2504 12.9808 48.1871 19.5086 -30.0458 -5.2831 -0.0000 0.0000 -39.6229 14.0117 -12.7605 -3.1549 -7.1250 0.0000 -0.0000 -9.1758 16.9460 6.1833 -0.0000 -0.0000 0.0000 88.0089 -4.3837 43.1851 -12.9230 21.1742 -2.4254 0.0000 0.0000 23.0254 -7.6912 3.4927 -0.4714 7.1250 -0.0000 -0.0000 14.2888 -26.3916 6.6437
-6.0009 16.1032 35.4641 -140.2010 -83.9888 153.4900 0.0000 0.0000 0.0000 -18.0790 1.3787 -22.3149 1.6715 8.1453 23.1563 0.3831 -15.7604 -14.7442 0.4977 -4.5228 -12.5524 0.0000 0.0000 0.0000 19.1866 2.1540 -14.1867 -0.8943 -6.0274 16.8639 -0.6917 10.0493 -15.4048 -1.2014 6.9542 -19.5797 1.0298 2.1616 -11.1223 0.8436 2.4704 -6.4285 0.5541 1.0996 -0.4617 -31.8830 -6.7125 16.6358 42.6541 -14.9128 -9.3062 23.6256 -9.9600 1.1430 0.0000 0.0000 0.0000 -86.2155 13.0670 48.2011 19.5275 -30.0689 -5.2926 -0.0000 0.0000 -39.7278 13.8191 -12.7537 -3.1082 -7.1250 0.0000 -0.0000 -9.3088 16.9663 6.2712 0.0000 0.0000 0.0000 88.0231 -4.3905 42.7663 -12.8519 21.0698 -2.3998 0.0000 0.0000 23.1994 -7.5651 3.4152 -0.4533 7.1250 -0.0000 -0.0000 14.3916 -26.4673 6.6680
-6.0050 16.1016 35.4696 -140.3760 -84.0454 153.6380 0.0000 0.0000 0.0000 -18.1615 1.4229 -22.2679 1.6661 8.1329 23.1183 0.3760 -15.8406 -14.7233 0.4909 -4.4923 -12.4659 0.0000 0.0000 0.0000 19.1090 2.1914 -14.1568 -0.9026 -6.0544 16.9424 -0.7036 9.9500 -15.4948 -1.2088 6.9749 -19.6411 0.9555 2.1376 -11.1565 0.8622 2.4428 -6.4531 0.6127 1.0871 -0.4728 -31.9005 -6.7108 16.6501 42.6149 -14.9527 -9.1622 23.5897 -9.9765 1.1902 -0.0000 -0.0000 0.0000 -86.2000 13.1347 48.2490 19.5442 -30.0892 -5.3009 -0.0000 0.0000 -39.8056 13.7131 -12.7282 -3.0774 -7.1250 0.0000 -0.0000 -9.3822 16.9993 6.3151 -0.0000 -0.0000 0.0000 87.9866 -4.4010 42.4528 -12.8051 21.0010 -2.3830 0.0000 0.0000 23.2684 -7.4293 3.3480 -0.4363 7.1250 -0.0000 -0.0000 14.5006 -26.5327 6.6987
-6.0079 16.1002 35.4797 -140.3250 -84.1120 153.5840 0.0000 0.0000 0.0000 -18.2333 1.3477 -22.2338 1.6659 8.1324 23.1170 0.3778 -15.8251 -14.7313 0.4868 -4.4740 -12.4142 0.0000 0.0000 0.0000 19.0358 2.1294 -14.1599 -0.9031 -6.0563 16.9477 -0.7071 9.9352 -15.5253 -1.2157 6.9940 -19.6977 0.9680 2.1204 -11.1879 0.8625 2.4162 -6.4850 0.6037 1.0724 -0.4885 -31.9098 -6.7133 16.6588 42.5802 -14.9952 -9.0229 23.5534 -9.9948 1.2384 0.0000 -0.0000 0.0000 -86.1687 13.1944 48.2970 19.5593 -30.1078 -5.3085 -0.0000 0.0000 -39.9022 13.6394 -12.6947 -3.0524 -7.1250 0.0000 -0.0000 -9.4335 17.0381 6.3425 0.0000 -0.0000 0.0000 87.9549 -4.4025 42.1545 -12.7722 20.9525 -2.3712 0.0000 0.0000 23.3123 -7.2900 3.2940 -0.4212 7.1250 -0.0000 -0.0000 14.6107 -26.5851 6.7341
-6.0104 16.0988 35.4896 -140.0440 -84.1640 153.2940 0.0000 0.0000 0.0000 -18.2702 1.2558 -22.2044 1.6693 8.1403 23.1411 0.3822 -15.7944 -14.7537 0.4826 -4.4549 -12.3601 0.0000 0.0000 0.0000 18.9924 2.1023 -14.1314 -0.9013 -6.0503 16.9304 -0.7113 9.8761 -15.5521 -1.2253 7.0207 -19.7767 1.0061 2.1036 -11.2138 0.8700 2.3878 -6.5136 0.5875 1.0562 -0.5031 -31.9120 -6.7165 16.6630 42.5452 -15.0349 -8.8872 23.5150 -10.0115 1.2844 -0.0000 -0.0000 0.0000 -86.1346 13.2479 48.3161 19.5701 -30.1210 -5.3139 -0.0000 0.0000 -40.0132 13.5593 -12.6570 -3.0249 -7.1250 0.0000 -0.0000 -9.4894 17.0818 6.3720 -0.0000 -0.0000 0.0000 87.9215 -4.3975 41.8804 -12.7535 20.9250 -2.3645 0.0000 0.0000 23.3431 -7.1476 3.2551 -0.4080 7.1250 -0.0000 -0.0000 14.7213 -26.6228 6.7749
